Coordinates
version=1
nRows=20
nColumns=36
inDegrees=yes

Units are S.I. units (second, meters, Newtons, ...)
If the header above contains a line with 'inDegrees', this indicates whether rotational values are in degrees (yes) or radians (no).

endheader
time	pelvis_tilt	pelvis_list	pelvis_rotation	pelvis_tx	pelvis_ty	pelvis_tz	hip_flexion_r	hip_adduction_r	hip_rotation_r	knee_angle_r	knee_angle_r_beta	ankle_angle_r	subtalar_angle_r	mtp_angle_r	hip_flexion_l	hip_adduction_l	hip_rotation_l	knee_angle_l	knee_angle_l_beta	ankle_angle_l	subtalar_angle_l	mtp_angle_l	lumbar_extension	lumbar_bending	lumbar_rotation	arm_flex_r	arm_add_r	arm_rot_r	elbow_flex_r	pro_sup_r	arm_flex_l	arm_add_l	arm_rot_l	elbow_flex_l	pro_sup_l
0.0	27.61987413	-1.37954228	-4.31066618	-0.17208785	0.65662255	-0.06553543	54.27323485	-5.86593404	0.42247607	-73.04416002071429	1.56088586	-8.63646372	-14.69299663	-7.40975009	50.42593113	-18.84843623	0.41552373	-72.75625140714286	1.55547438	0.12567414	-1.46092372	-7.40975009	-46.7390762	-1.78103072	5.24887918	7.78849845	-14.35883623	11.57501665	20.8350481	72.0152852	12.05990147	-12.57897879	22.36633928	18.02165338	63.64847313
0.0166667	27.231158	-1.92384292	-3.30325359	-0.16834308	0.6567466	-0.06891091	54.23238517	-4.54667108	0.74505678	-74.60186218714286	1.59016421	-2.98968329	-11.41646445	-7.42744435	53.22604557	-15.54138438	2.93381746	-76.5049088242857	1.62593359	6.75422573	-1.83798127	-7.42744435	-46.44659377	-0.69486442	4.13377736	10.08547156	-13.13471966	13.17261003	15.35518624	73.89097603	11.64411917	-11.66070859	15.91231295	16.51635579	62.9157962
0.0333333	27.65529006	-1.63810363	-3.43390791	-0.17024118	0.6569159	-0.06889784	53.6243451	-5.02881315	1.03172325	-75.50893142999999	1.60721335	0.78837328	-8.79889547	-7.42878739	53.08761613	-14.68190766	3.25011812	-76.70880863357142	1.62976606	6.7514718	-2.69273727	-7.42878739	-47.08501144	-0.90693776	4.25588051	10.24797219	-12.89178622	13.12115564	14.12903327	73.92549051	12.04614466	-11.28614047	15.39137899	15.99045534	62.91527843
0.05	28.5773943	-1.29689777	-3.34457692	-0.17154628	0.6574492	-0.06840267	52.56416654	-5.09309997	1.19409169	-75.18292005785713	1.60108568	2.60704545	-6.86230707	-7.43761143	51.97760002	-14.21713009	3.38041768	-76.68456858285715	1.62931045	6.54821763	-2.63018814	-7.43761143	-47.93647816	-0.98834143	3.42419974	11.19126985	-12.52534227	13.57993784	12.28672107	73.33949152	11.97010387	-11.08279466	14.11784587	15.77792281	62.6560695
0.0666667	28.92041641	-1.10895382	-3.24504028	-0.17737729	0.65794164	-0.06547239	52.21224229	-4.78376109	1.27722959	-75.08647898214285	1.59927299	3.64868681	-6.21279247	-7.44588222	51.58606854	-13.94310104	3.49008563	-76.31172048571429	1.62230245	6.01184386	-2.96865604	-7.44588222	-48.72945213	-0.9550364	2.10308294	13.16980983	-12.14455189	18.75461912	9.88243593	75.28088561	11.30240487	-11.37345961	11.31396706	17.20054819	63.06588969
0.0833333	29.10325616	-0.91627657	-3.23846213	-0.17702152	0.65812757	-0.06530768	51.9540886	-4.90369665	1.42832947	-74.95662655071428	1.59683231	3.9632141	-5.6593217	-7.45952609	51.43030246	-13.96008348	3.41629005	-75.77852504928572	1.61228059	5.04558292	-3.03526341	-7.45952609	-49.15389142	-1.14495412	1.58288023	14.22303757	-11.99870924	22.97591922	8.57271914	74.27782279	11.22934037	-11.33729152	8.26603135	17.72069611	64.68469215
0.1	29.18910148	-0.62113208	-3.01482105	-0.1771084	0.65859283	-0.06524712	51.79684327	-5.36013924	1.64787072	-74.71135628428571	1.59222224	4.05263408	-5.36479284	-7.4638087	51.27490255	-13.65213562	3.32973792	-75.29842660857142	1.60325673	4.67681623	-2.7787648	-7.4638087	-49.31456207	-1.3242828	1.34383327	14.60461387	-11.74171983	22.74904157	7.92160494	73.24515909	11.51086856	-11.45562673	7.57533764	17.8686197	64.54668502
0.1166667	29.10789101	-0.47154995	-2.87454914	-0.17681696	0.65839188	-0.06525184	51.82420962	-5.70190923	1.75148886	-74.73013729142856	1.59257525	3.88227903	-5.02680843	-7.46974131	51.29507689	-13.5281685	3.33103271	-75.07706606285714	1.59909607	4.30903943	-2.80800717	-7.46974131	-49.33845466	-1.49355096	1.9560804	14.37221566	-11.79983935	22.00155292	7.63173149	71.88040246	11.83019406	-11.37486401	6.64508235	18.94093295	64.13615317
0.1333333	29.10987274	-0.47415774	-2.88746049	-0.17212291	0.65869172	-0.06771141	51.6068401	-5.94101825	1.84226346	-74.75748665428571	1.5930893	3.89115126	-4.95625553	-7.46979419	51.2246103	-13.51402561	3.21866024	-75.20110844142857	1.60142755	4.27504086	-2.82112567	-7.46979419	-49.0883282	-1.4748354	1.87578103	14.41099407	-11.85754956	22.06792477	7.60533003	71.90192728	11.70087795	-11.35447467	6.60617367	18.74511013	64.15999015
0.15	29.06909126	-0.13234163	-2.77333976	-0.17754755	0.66063503	-0.06484002	51.57083329	-6.37372637	1.85704744	-74.43565098428572	1.58704012	3.59010207	-5.07059872	-7.4732027	50.92802371	-13.29904826	2.89416089	-74.78299175357142	1.59356869	3.85232346	-2.97709323	-7.4732027	-49.08598177	-1.70437167	1.1948019	15.01111807	-11.57433996	27.25501366	6.19092556	73.22018263	12.2489606	-11.29988774	5.15222042	16.77821744	66.20280003
0.1666667	29.11655155	-0.03615002	-2.7867412	-0.17289823	0.66088441	-0.06748958	51.46224413	-6.79122376	1.7374701	-74.39755485571428	1.58632408	3.43919476	-5.03731359	-7.48660116	50.82474614	-13.15524423	2.73267322	-74.873318335	1.59526646	3.36354958	-3.70869856	-7.48660116	-49.03720493	-1.72802348	0.73189235	15.37479803	-11.46352934	33.69388367	5.11968041	67.53882892	11.60690957	-11.18794054	1.60234341	17.4324299	72.09070156
0.1833333	29.16126626	0.01656084	-2.62993204	-0.17326036	0.66076998	-0.06749594	51.33654962	-7.06215792	1.61136475	-74.37617912285714	1.5859223	3.15139509	-5.3173375	-7.48903822	50.61725723	-13.10116771	2.65390197	-74.78005819214285	1.59351355	3.56965063	-3.56195614	-7.48903822	-49.1934048	-1.69332353	0.70372534	15.27694176	-11.38506685	32.81004937	4.78417654	66.66850333	11.34104794	-11.19464867	1.11959605	18.30538421	70.88943558
0.2	28.96456034	-0.01266351	-2.51911149	-0.17368442	0.65821196	-0.06770674	51.67878938	-7.34222073	1.4813604	-74.63414921	1.59077107	3.76610762	-4.44053352	-7.49033552	51.09783455	-13.12177182	2.67372179	-74.96423630499999	1.59697534	3.29331904	-3.75524121	-7.49033552	-48.77045431	-1.58476728	0.94278934	15.12408973	-11.75448199	36.03661662	4.78440402	67.63573565	12.07240691	-11.09281931	2.33684515	16.19945266	71.76076583
0.2166667	29.10772631	-0.10388334	-2.42791332	-0.17312028	0.66053644	-0.06786816	51.40904114	-7.40005332	1.34912906	-74.70385573928571	1.59208126	3.97163781	-4.3790755	-7.49230258	50.99091737	-13.12088989	2.7897004	-74.92525075357143	1.59624257	2.97337891	-4.09607716	-7.49230258	-48.9771476	-1.38625042	0.42399921	15.61808975	-11.68755604	37.32097612	4.4217451	66.90407534	11.47689872	-11.3301715	2.80636961	16.59914547	70.79500837
0.2333333	29.5559183	-0.31043863	-2.56725126	-0.17410416	0.65926576	-0.06782307	50.90220041	-7.30984226	1.13697264	-74.69958615857144	1.59200101	3.75566485	-4.27069622	-7.49402019	50.63815799	-13.28326367	2.95788317	-75.03122131214286	1.59823438	2.64378632	-4.43769285	-7.49402019	-49.55286592	-1.26813081	0.77871679	15.77043299	-11.89520413	37.71440124	4.23011203	66.06154324	10.86467885	-11.34309563	2.38127021	18.62558271	69.80902011
0.25	29.21252932	-0.1201544	-2.38866693	-0.17322471	0.66067193	-0.06793218	51.2751751	-7.70771643	0.97009931	-74.61167026000001	1.59034856	3.58067846	-4.20374836	-7.49630764	51.06573189	-12.92862997	2.94652624	-75.07250333214287	1.59901031	2.33803812	-4.64286618	-7.49630764	-48.89761858	-1.28455405	1.32494234	15.24385429	-12.55227896	46.36998759	4.28095437	65.96676171	12.43298274	-11.50022129	9.20122993	14.96024141	71.61659451
0.2666667	29.10737356	-0.03691468	-2.1959312	-0.17360664	0.6585023	-0.06803819	51.42766058	-7.99949347	0.92363739	-74.82096173571429	1.59428237	3.69832721	-3.79184426	-7.4979116	51.39889373	-12.6713095	3.20722739	-75.34091307857142	1.6040553	2.21532586	-4.39410872	-7.4979116	-48.77886814	-1.140802	1.13030786	15.54024156	-12.68040103	54.06585518	4.04630159	57.17681808	12.60503907	-11.85303764	13.89938516	14.42303868	68.26703817
0.2833333	29.15816855	0.05145727	-1.78512134	-0.17331893	0.65825154	-0.06840192	51.39934988	-8.29153831	0.92498199	-75.03681453428571	1.59833951	3.64552813	-3.65411035	-7.49808438	51.59690814	-12.2357035	3.53616175	-75.32933991214287	1.60383777	2.20015045	-4.52268587	-7.49808438	-48.76136685	-0.86021826	0.9312407	15.61702478	-12.80847783	55.04666272	4.12566416	56.93463253	12.60110533	-11.85912679	13.23505949	14.57446537	67.70576678
0.3	29.01571778	0.34434274	-1.36670444	-0.17965835	0.65835499	-0.07083492	51.61406724	-8.73350555	1.09989186	-74.80070283285716	1.59390159	3.53946838	-3.66167679	-7.49810363	51.83697628	-11.33688692	3.58252422	-75.03669849071429	1.59833733	1.79904443	-4.67572435	-7.49810363	-48.83441093	-0.56956529	0.80077885	16.0144965	-13.07633354	55.30641504	4.20108968	56.85162354	12.81232206	-11.93845031	13.57329162	14.72348341	67.7785034
0.3166667	29.19156946	0.69273542	-1.01243457	-0.17939508	0.66053443	-0.07060385	51.40274964	-9.03326036	1.32722472	-74.43654860642857	1.587057	3.29860048	-3.46682007	-7.49916265	51.62406223	-10.4457871	3.61766577	-74.56386099571428	1.58944994	0.569335	-5.6994261	-7.49916265	-48.95058591	-0.38880559	0.56154867	16.27591115	-13.25393406	63.12042523	4.02635053	48.60245593	13.39878587	-12.2735777	19.33881596	13.89064766	64.31269714
